<svg width="40" height="40" viewBox="0 0 40 40" fill="none" xmlns="http://www.w3.org/2000/svg">
<rect width="20" height="40" fill="#FFB2B2"/>
<path fill-rule="evenodd" clip-rule="evenodd" d="M35 5H27.5C27.5 5 25 4.57107 25 2.5C25 0.428932 27.5 0 27.5 0H40V12.5C40 12.5 40 15 37.5 15C35 15 35 12.5 35 12.5V5ZM12.5 35H5V27.5C5 27.5 5 25 2.5 25C0 25 0 27.5 0 27.5V40H12.5C12.5 40 15 39.5711 15 37.5C15 35.4289 12.5 35 12.5 35ZM35 27.5V35H27.5C27.5 35 25 35 25 37.5C25 40 27.5 40 27.5 40H40V27.5C40 27.5 39.5711 25 37.5 25C35.4289 25 35 27.5 35 27.5ZM5 12.5V5H12.5C12.5 5 15 5 15 2.5C15 0 12.5 0 12.5 0H0V12.5C0 12.5 0.428932 15 2.5 15C4.57107 15 5 12.5 5 12.5Z" fill="white"/>
</svg>
