<svg width="16" height="16" viewBox="0 0 16 16" fill="none" xmlns="http://www.w3.org/2000/svg">
<path fill-rule="evenodd" clip-rule="evenodd" d="M3.09243 16H12.9082C14.6131 16 16 14.6143 16 12.908V6.35801V3.09136C16 1.38838 14.6131 0 12.9082 0H3.09243C1.38693 0 0 1.38838 0 3.09136V6.35801V12.908C0 14.6143 1.38693 16 3.09243 16ZM6.00092 7.99967C6.00092 6.89456 6.89599 5.99942 7.99967 5.99942C9.10468 5.99942 9.99975 6.89456 9.99975 7.99967C9.99975 9.10277 9.10468 9.99992 7.99967 9.99992C6.89599 9.99992 6.00092 9.10277 6.00092 7.99967ZM7.99967 11.9988C5.79164 11.9988 4.0015 10.2105 4.0015 7.99967C4.0015 7.26715 4.21277 6.58996 4.556 5.99942H1.97542V12.4627C1.97542 13.3092 2.66322 13.9984 3.50898 13.9984H12.4637C13.3088 13.9984 13.9966 13.3092 13.9966 12.4627V5.99942H11.444C11.7879 6.58996 11.9992 7.26715 11.9992 7.99967C11.9992 10.2105 10.2084 11.9988 7.99967 11.9988ZM14.0092 2.00492V2.26353V4.00517L11.9952 4.0105L11.9885 2.01158L13.7453 2.00492H14.0092Z" fill="white"/>
</svg>
