<svg width="50" height="37" viewBox="0 0 50 37" fill="none" xmlns="http://www.w3.org/2000/svg">
<path opacity="0.3" d="M26.1945 13L22.0928 11.8762C23.746 7.79984 26.3977 5.25697 30.1047 4.49523C32.0348 4.09863 34.9526 1.54501 34.9526 0H39.2761C39.2761 3.19332 34.988 7.1549 31.1533 7.94287C29.0956 8.36571 27.4238 9.96887 26.1945 13Z" fill="#FF0000"/>
<path fill-rule="evenodd" clip-rule="evenodd" d="M15.2076 11.0781C12.3586 10.3136 9.11063 11.6504 7.80988 14.1229L0.487278 28.0416C-0.544459 30.0027 -0.0832483 32.2017 1.64075 33.5412L3.43066 34.9319C5.6691 36.6711 9.28696 36.4182 11.5523 34.3641L17.5101 28.9619H31.6354L37.5928 34.3637C39.8581 36.4178 43.476 36.6707 45.7144 34.9315L47.4564 33.578C49.2038 32.2203 49.6515 29.9822 48.571 28.006L40.9425 14.0538C39.6083 11.6137 36.3758 10.3168 33.554 11.0894L33.4841 11.1086H15.3212L15.2076 11.0781ZM15.5775 23.6059C18.0116 23.6059 19.9847 22.0073 19.9847 20.0352C19.9847 18.0632 18.0116 16.4646 15.5775 16.4646C13.1435 16.4646 11.1704 18.0632 11.1704 20.0352C11.1704 22.0073 13.1435 23.6059 15.5775 23.6059ZM37.6133 18.2499C37.6133 19.2359 36.6267 20.0352 35.4097 20.0352C34.1927 20.0352 33.2062 19.2359 33.2062 18.2499C33.2062 17.2639 34.1927 16.4646 35.4097 16.4646C36.6267 16.4646 37.6133 17.2639 37.6133 18.2499ZM31.0026 23.6059C32.2196 23.6059 33.2062 22.8066 33.2062 21.8206C33.2062 20.8346 32.2196 20.0352 31.0026 20.0352C29.7856 20.0352 28.799 20.8346 28.799 21.8206C28.799 22.8066 29.7856 23.6059 31.0026 23.6059Z" fill="#3D42DF"/>
</svg>
