<svg width="233" height="32" viewBox="0 0 233 32" fill="none" xmlns="http://www.w3.org/2000/svg">
<path fill-rule="evenodd" clip-rule="evenodd" d="M13.8431 0.748091C15.7935 0.65778 18.1339 1.38027 18.1339 3.87888L18.1358 3.88054C18.1358 6.25873 16.1854 7.52308 14.3251 7.52308V11.4353L16.3355 13.0622L16.3638 13.2428L14.3235 14.8684V20.1064C15.7337 19.2936 16.8139 17.7583 17.564 16.1327L17.8641 16.1612C17.9241 20.4058 14.6835 24.4083 9.58259 24.4083C4.87174 24.4083 0.730988 20.6165 0.730988 15.4989C0.730988 11.2229 4.15161 7.76225 7.90229 6.73873L7.99207 7.03977C6.64182 7.85257 5.32158 8.9664 4.66146 10.6522L10.9926 7.82246V16.4622L5.83168 18.9608C7.21193 20.4961 8.95224 20.9778 10.7826 20.9778C11.7728 20.9778 12.913 20.8273 13.9031 20.2553V14.8667L11.9828 13.1809V13.0302L13.9031 11.4334V7.52119C12.883 7.39949 10.9926 6.94794 9.2823 6.46628C8.95 6.3703 8.63121 6.27602 8.32538 6.18557L8.32529 6.18554L8.32482 6.1854L8.32478 6.18539C6.80828 5.73688 5.61022 5.38254 4.66146 5.38254C3.40124 5.38254 2.92115 6.25555 2.92115 6.7987C2.92115 7.52119 3.28121 7.7907 3.64128 8.03295L3.46125 8.33399C2.89114 8.09188 1.51089 7.43088 1.51089 5.59327C1.51089 3.33677 3.37123 1.49917 5.83168 1.49917C7.09024 1.49917 8.58822 2.00958 10.1762 2.55065L10.1825 2.5528C11.6227 3.03446 13.4231 3.57632 14.3532 3.57632C15.5237 3.57632 15.9135 2.88522 15.9135 2.34207C15.9135 1.56065 15.0133 1.16765 13.8431 1.1392V0.748091ZM5.65164 18.6297L7.18192 17.8771L7.21193 9.92972L4.57145 11.1038C4.30116 11.8551 4.21138 12.9401 4.21138 13.8131C4.21138 15.9505 4.78149 17.4858 5.65164 18.6297ZM20.5343 20.6767L18.854 21.9423L19.0643 22.1817L19.8745 21.6098L22.695 24.1975L26.4757 21.6687L26.2956 21.398L25.3054 22.0302L24.0752 20.7972V12.1273L25.0954 11.3735L27.2558 13.1195V20.7972C27.2558 25.5825 26.2056 26.3652 24.0452 27.1491V27.4814C27.6159 27.6307 30.8264 26.4266 30.8264 20.2866V12.037L31.9667 11.1326L31.7564 10.8628L30.7662 11.6443L27.6756 8.96507L24.075 11.6744V1.25976H23.8047L19.3339 4.27013V4.5413C19.3914 4.57608 19.4538 4.60933 19.5189 4.64404C19.9633 4.8809 20.5341 5.18516 20.5341 6.49927L20.5343 20.6767ZM40.488 21.7304L43.5785 19.3221L43.8188 19.6531L38.1178 24.1686L33.857 21.0667L32.6868 21.9999L32.4765 21.7302L33.7667 20.7355V12.4281L40.2779 8.93488L43.2485 13.5106V13.6927L37.2774 17.6952V19.2004L40.488 21.7304ZM37.2774 17.2449V11.0436L37.4877 10.8928L40.2482 15.2578L37.2774 17.2449ZM67.4616 1.56212C67.6114 2.01245 67.7017 2.34335 67.7017 2.73494L67.6982 2.73517C67.6982 4.93274 65.8678 6.40797 63.9163 6.52696V24.2593H63.1961L53.0243 6.46675V19.1429C54.6146 19.3825 55.3947 19.8353 56.775 21.0683L57.7051 20.0147L58.0052 20.2868L54.3745 24.3508C53.7444 23.6283 52.8442 22.9962 51.8241 22.9962C50.8339 22.9962 50.0537 23.5668 50.0537 24.6506C50.0537 25.5236 50.7739 26.1555 52.1241 26.3063L52.0958 26.6059C49.9354 26.7276 47.865 25.5836 47.865 23.1754C47.865 20.6454 49.9354 19.1699 52.6059 19.1415V13.783C52.5158 13.7512 52.096 13.7228 51.9457 13.7228C51.0156 13.7228 50.5055 14.1743 50.5055 14.8667C50.5055 15.2881 50.7167 15.528 50.927 15.7385L50.8986 16.0106C49.3083 15.7083 48.8282 14.0839 48.8282 13.1194C48.8282 11.2542 50.3285 10.2006 52.6089 10.2006V6.07635C52.2789 5.47305 51.6488 4.812 50.9586 4.812C50.0885 4.812 49.6986 5.6549 49.6084 6.4376H49.2483C49.0083 3.54764 50.8386 1.8305 52.819 1.8305C54.5893 1.8305 55.5495 3.27547 56.1196 4.23879L63.5009 17.0642V6.52791C61.9073 6.50153 61.2956 6.0204 60.6055 5.47756L60.6053 5.4774C60.5413 5.42704 60.4766 5.37615 60.4103 5.32504L59.3902 6.49908L59.0901 6.22697C59.0901 6.22697 62.6908 2.07099 62.6908 2.04255C63.1408 2.52544 63.981 3.18649 65.0612 3.18649C66.2914 3.18649 66.7717 2.61575 67.1616 1.56212H67.4616ZM76.7933 19.3221L73.7028 21.7316L70.4922 19.2017V17.6965L76.4632 13.6939V13.5119L73.4927 8.93611L66.9815 12.4294V20.7368L65.6913 21.7314L65.9016 22.0012L67.0718 21.0679L71.3326 24.1699L77.0336 19.6544L76.7935 19.322L76.7933 19.3221ZM70.4922 11.0436V17.2449L73.4629 15.2578L70.7024 10.8928L70.4922 11.0436ZM97.4358 10.3211L96.5056 11.0135L94.1052 8.9664L91.3147 11.4963L92.4549 12.5788V22.1217L89.3943 20.165V12.3982L90.3845 11.7058L87.444 8.96512L84.7135 11.4951L85.8537 12.5776V21.6401L85.4638 21.8795L82.7934 19.9829V12.3679C82.7934 10.634 81.9648 10.1173 80.866 9.43208L80.843 9.41777C79.9128 8.8458 79.4928 8.36414 79.4928 7.49113C79.4928 6.76864 80.2129 6.34719 80.573 6.13646C80.5446 6.10802 80.5446 5.83543 80.5446 5.83543C79.5844 5.80698 76.9139 6.85895 76.8539 9.29859C76.8263 10.5327 77.3958 11.0773 78.009 11.6637L78.0542 11.7069C78.6843 12.3077 79.2544 12.8809 79.2544 13.9333V21.2485L77.9041 22.3022L78.1144 22.5743L79.3446 21.611L82.6752 24.23L85.8258 22.0926L89.3064 24.23L95.9976 20.3165V11.826L97.6479 10.6219L97.4377 10.3208L97.4358 10.3211ZM119.55 4.51105L120.81 3.36711L121.08 3.63672L119.61 4.90231V20.4973C119.61 23.1765 117.959 23.8388 116.129 23.8388C115.128 23.8388 114.109 23.5964 113.008 23.3343C112.657 23.2508 112.298 23.1653 111.928 23.0849C110.488 22.7551 109.168 22.5745 107.997 22.5745C105.837 22.5745 104.967 23.4174 104.967 24.471C104.967 25.645 106.047 26.0665 106.917 26.0665C107.457 26.0665 109.228 25.8859 110.968 25.4958C112.528 25.1335 114.599 24.8021 115.649 24.8021C117.689 24.8021 119.52 25.9461 119.52 27.8727C119.52 29.7379 118.319 30.9736 116.249 31.3647L116.189 31.0637C116.699 30.9132 117.089 30.5808 117.089 29.709C117.089 29.0164 116.669 28.5651 115.709 28.5651C114.959 28.5651 113.398 28.8659 112.108 29.1371C110.518 29.4983 109.018 29.7994 107.277 29.7994C104.817 29.7994 103.137 28.2039 103.137 26.0966C103.137 24.5613 103.977 23.2066 105.807 22.5745V14.7475H105.357C104.397 14.7475 103.707 15.0485 103.707 15.7697C103.707 16.0708 103.827 16.4033 104.367 16.6428L104.307 16.9438C102.687 16.8836 102.237 15.3483 102.237 14.3549C102.237 12.7594 103.557 11.4647 105.867 11.3746V6.4376C105.867 4.75179 105.207 4.27013 104.427 4.27013C103.677 4.27013 103.287 4.93241 103.167 5.685H102.807C102.807 3.90889 104.307 2.13277 106.617 2.13277C108.868 2.13277 109.768 3.87878 109.768 5.14314L109.858 22.2734C110.407 22.3589 110.986 22.4742 111.459 22.5686C111.813 22.6392 112.108 22.698 112.288 22.7238L112.198 2.22317H112.619V5.11313L116.729 2.04127L119.55 4.51105ZM115.649 11.164C115.319 11.5252 114.779 11.8865 114.149 11.8865C113.459 11.8865 112.949 11.465 112.619 11.164V5.53458L113.909 4.66157L115.649 6.25707V11.164ZM114.149 14.2948C114.809 14.2948 115.349 14.6273 115.649 14.9269V11.6155C115.349 11.9167 114.809 12.2765 114.149 12.2765C113.489 12.2765 112.889 11.8549 112.619 11.6155V14.9269C112.889 14.6849 113.489 14.2948 114.149 14.2948ZM115.649 20.8273C115.649 21.8508 114.959 22.8429 113.639 22.8429C113.428 22.8429 112.829 22.8145 112.619 22.7841V15.3786C112.919 15.1065 113.459 14.685 114.149 14.685C114.779 14.685 115.289 15.0477 115.649 15.3786V20.8273ZM128.791 8.93502L132.872 11.8551V20.3456L126.631 24.1688L122.58 21.1886L121.59 22.0001L121.41 21.7304L122.67 20.7068V12.4584L128.791 8.93502ZM126.181 19.8338V10.8027L129.362 13.0906V22.1217L126.181 19.8338ZM144.664 9.26744C144.664 9.26744 144.904 9.29588 144.904 9.26744L144.905 9.26687C144.725 11.1935 143.794 13.0599 142.114 13.0574C141.244 13.0574 140.494 12.4553 139.864 11.7617V20.6423L141.334 21.9681L142.444 21.3058L142.624 21.577L138.693 24.196L135.663 21.6083L134.853 22.1803L134.643 21.9409L136.323 20.6753V12.6978L135.033 11.3131L134.042 11.9741L133.862 11.6745L137.583 9.08682L139.773 11.4336L141.904 9.08682H142.144C142.444 9.47831 143.074 9.77792 143.554 9.77792C143.914 9.77792 144.334 9.56705 144.664 9.26744ZM160.057 21.3992L155.766 24.229L149.945 15.4086L154.056 8.99774L154.326 8.96929C154.806 9.45095 155.647 9.96272 156.427 9.96272C157.297 9.96272 157.897 9.48106 158.257 8.96929C158.257 8.96929 158.497 8.99774 158.497 8.96929C158.347 11.5281 156.637 12.9731 155.346 12.9731C154.253 12.9731 153.633 12.5604 153.061 12.1791C152.942 12.0999 152.825 12.0221 152.706 11.9496L152.316 12.5215L158.617 21.8838L159.878 21.1011L160.057 21.3992ZM144.514 21.9423L146.195 20.6767L146.194 6.49818C146.194 5.20366 145.597 4.9149 145.14 4.69395L145.139 4.69389C145.054 4.65278 144.974 4.61401 144.904 4.57155V4.30038L149.464 1.2599H149.735V20.7972L150.965 22.0302L151.925 21.398L152.135 21.6687L148.355 24.1975L145.534 21.6098L144.724 22.1817L144.514 21.9423ZM180.97 3.87888C180.97 1.38027 178.629 0.65778 176.679 0.748091V1.1392C177.849 1.16765 178.749 1.56065 178.749 2.34207C178.749 2.88522 178.359 3.57632 177.189 3.57632C176.259 3.57632 174.458 3.03446 173.018 2.5528L173.012 2.55066C171.424 2.00958 169.926 1.49917 168.667 1.49917C166.207 1.49917 164.347 3.33677 164.347 5.59327C164.347 7.43088 165.727 8.09188 166.297 8.33399L166.477 8.03295C166.117 7.79212 165.757 7.52242 165.757 6.79993C165.757 6.25683 166.237 5.38382 167.497 5.38382C168.446 5.38382 169.644 5.73815 171.161 6.18667C171.467 6.27717 171.786 6.37152 172.118 6.46756C173.828 6.94922 175.719 7.40077 176.739 7.52242V11.4347L174.819 13.0314V13.1822L176.739 14.868V20.2565C175.749 20.8285 174.609 20.979 173.618 20.979C171.788 20.979 170.048 20.4974 168.667 18.9621L173.828 16.4635V7.82246L167.497 10.6534C168.157 8.9664 169.478 7.8538 170.828 7.03977L170.738 6.73873C166.987 7.76225 163.567 11.2242 163.567 15.4989C163.567 20.6165 167.708 24.4083 172.418 24.4083C177.519 24.4083 180.76 20.4058 180.7 16.1612L180.4 16.1327C179.65 17.7583 178.569 19.2936 177.159 20.1064V14.8684L179.2 13.2428L179.171 13.0622L177.161 11.4353V7.52308C179.021 7.52308 180.972 6.25873 180.972 3.88054L180.97 3.87888ZM168.487 18.6297L170.018 17.8771H170.019L170.048 9.92972L167.407 11.1038C167.137 11.8551 167.047 12.9401 167.047 13.8131C167.047 15.9505 167.617 17.4858 168.487 18.6297ZM185.29 2.70355L185.11 2.67511L182.59 4.81247V4.99309L184.72 7.40139H184.931L187.451 5.29413L187.423 5.14337L185.292 2.70374L185.29 2.70355ZM188.171 22.0314L189.131 21.3992L189.341 21.668L185.561 24.1967L182.8 21.668L181.96 22.2701L181.78 22.0293L183.4 20.7963V12.6081L182.29 11.2233L181.39 11.8266L181.18 11.4953L184.78 8.96531L186.971 11.5843L187.901 10.8631L188.141 11.1627L186.941 12.0658V20.7984L188.171 22.0314ZM210.135 21.2485L209.235 21.8506L207.885 20.6163V12.0367L209.175 11.0734L208.965 10.8013L207.854 11.6442L204.974 8.96498L201.253 11.6141L198.403 8.96498L194.742 11.584L192.492 8.96498L188.891 11.4949L189.071 11.8263L189.971 11.223L191.201 12.5777V20.7659L190.211 21.7593L193.092 24.1964L195.882 21.6677L194.742 20.5852V12.037L195.822 11.3145L197.772 13.1195V20.7671L196.812 21.7605L199.723 24.1977L202.453 21.669L201.313 20.5865V11.9756L202.273 11.3434L204.344 13.1195V20.6455L203.504 21.5185L206.444 24.1977L210.315 21.5498L210.135 21.2485ZM217.996 21.7314L221.087 19.3218L221.327 19.6528L215.626 24.1683L211.275 21.0087V12.4291L217.786 8.93587L220.757 13.5116V13.6937L214.786 17.6962V19.2014L217.996 21.7314ZM214.786 17.2447V11.0433L214.996 10.8926L217.757 15.2576L214.786 17.2447ZM230.179 14.2293L232.609 16.0656L232.609 20.7305C232.609 20.7305 227.148 23.9834 227.148 24.0118C226.758 23.5603 226.008 22.7173 224.777 22.7173C223.817 22.7173 223.307 23.3194 223.307 23.7409C223.307 24.2615 223.506 24.4342 223.746 24.6417C223.769 24.6621 223.793 24.6828 223.817 24.7042L223.667 24.9763C222.587 24.5561 222.017 23.6517 222.017 22.3874C222.017 21.4241 222.407 20.0995 224.538 18.203L222.437 16.5473V11.9414L228.108 8.83945C228.708 9.50301 229.398 10.0449 230.359 10.0449C231.349 10.0449 231.829 9.4729 232.069 8.81062H232.369C232.401 9.11166 232.429 9.4428 232.429 9.62342C232.429 10.9166 231.799 12.8144 230.179 14.2293ZM231.259 12.2713C230.458 13.706 228.649 15.1145 227.545 15.9732L227.388 16.0957L226.008 15.012V10.5265C226.548 11.7307 227.868 12.7542 229.308 12.7542C230.149 12.7542 230.599 12.6025 231.259 12.2713ZM225.438 19.8888C226.938 19.8888 228.408 20.9123 229.038 22.3272V17.6322L227.478 16.4281C225.318 17.7213 223.637 19.5275 223.067 20.4921C224.027 19.8888 225.078 19.8888 225.438 19.8888Z" fill="black"/>
</svg>
