<svg width="50" height="32" viewBox="0 0 50 32" fill="none" xmlns="http://www.w3.org/2000/svg">
<path opacity="0.3" fill-rule="evenodd" clip-rule="evenodd" d="M11.7792 28.0986L8.90505 30.8968C3.27515 27.1213 -0.0482178 21.5281 -0.0482178 15.5001C-0.0482178 9.48055 3.26591 3.89426 8.88247 0.118652L11.7607 2.91408C7.16125 6.00598 4.45217 10.5724 4.45217 15.5001C4.45217 20.4347 7.16882 25.0068 11.7792 28.0986ZM37.3166 28.0986L40.1908 30.8968C45.8207 27.1213 49.144 21.5281 49.144 15.5001C49.144 9.48055 45.8299 3.89426 40.2133 0.118652L37.3351 2.91408C41.9346 6.00598 44.6436 10.5724 44.6436 15.5001C44.6436 20.4347 41.927 25.0068 37.3166 28.0986ZM31.6052 22.5182L34.4683 25.3237C38.0731 22.9219 40.2043 19.3499 40.2043 15.5002C40.2043 11.6631 38.0871 8.10152 34.5026 5.69951L31.6297 8.49854C34.1939 10.2169 35.7039 12.7569 35.7039 15.5002C35.7039 18.2524 34.1839 20.8 31.6052 22.5182ZM14.6268 25.3237L17.49 22.5182C14.9113 20.8 13.3913 18.2524 13.3913 15.5002C13.3913 12.7569 14.9012 10.2169 17.4655 8.49854L14.5926 5.69951C11.0081 8.10152 8.89087 11.6631 8.89087 15.5002C8.89087 19.3499 11.0221 22.9219 14.6268 25.3237Z" fill="#FF0000"/>
<path fill-rule="evenodd" clip-rule="evenodd" d="M26.7792 19.7023C28.7496 18.995 30.1266 17.3798 30.1266 15.5003C30.1266 12.969 27.6288 10.917 24.5476 10.917C21.4664 10.917 18.9686 12.969 18.9686 15.5003C18.9686 17.3798 20.3456 18.995 22.316 19.7023V30.1821C22.316 31.1863 23.1301 32.0003 24.1342 32.0003H24.961C25.9652 32.0003 26.7792 31.1863 26.7792 30.1821V19.7023Z" fill="#3D42DF"/>
</svg>
