<svg width="18" height="15" viewBox="0 0 18 15" fill="none" xmlns="http://www.w3.org/2000/svg">
<path fill-rule="evenodd" clip-rule="evenodd" d="M18 1.77553C17.3379 2.07876 16.6264 2.28194 15.8789 2.37352C16.6414 1.90482 17.227 1.16213 17.5029 0.277065C16.7891 0.711134 15.9988 1.02745 15.1576 1.196C14.4843 0.460236 13.5246 0 12.4629 0C10.4227 0 8.76944 1.69702 8.76944 3.78733C8.76944 4.08363 8.80243 4.37378 8.86541 4.64931C5.79581 4.49153 3.07485 2.98538 1.25363 0.693433C0.935727 1.25449 0.75353 1.90405 0.75353 2.59903C0.75353 3.91047 1.40509 5.07029 2.3963 5.7491C1.79123 5.72909 1.22139 5.55747 0.724289 5.27578C0.723539 5.29194 0.723539 5.30734 0.723539 5.32196C0.723539 7.15675 1.99667 8.68753 3.68593 9.03386C3.37552 9.12083 3.04936 9.16778 2.71271 9.16778C2.47428 9.16778 2.24335 9.14392 2.01766 9.10082C2.48777 10.6047 3.85163 11.6998 5.46741 11.7268C4.20327 12.745 2.61149 13.3492 0.880993 13.3492C0.58333 13.3492 0.289416 13.333 0 13.296C1.63527 14.3712 3.57571 15 5.6616 15C12.4539 15 16.1675 9.22858 16.1675 4.22601C16.1675 4.06285 16.1645 3.89892 16.157 3.7373C16.8791 3.20241 17.5051 2.53361 18 1.77553Z" fill="white"/>
</svg>
