<svg width="50" height="40" viewBox="0 0 50 40" fill="none" xmlns="http://www.w3.org/2000/svg">
<path opacity="0.3" d="M36.6863 2.61292C37.9951 3.2206 38.4514 4.57763 37.7055 5.64392C36.9597 6.71022 35.2941 7.082 33.9853 6.47431C31.1339 5.15033 27.907 4.44444 24.5476 4.44444C14.003 4.44444 5.45502 11.4089 5.45502 20C5.45502 28.5911 14.003 35.5556 24.5476 35.5556C27.8733 35.5556 31.0694 34.8638 33.9003 33.5649C35.2129 32.9627 36.8761 33.3415 37.6152 34.4109C38.3544 35.4802 37.8895 36.8353 36.577 37.4376C32.9342 39.1089 28.8172 40 24.5476 40C10.9903 40 0 31.0457 0 20C0 8.9543 10.9903 0 24.5476 0C28.8605 0 33.0173 0.909303 36.6863 2.61292Z" fill="#FF0000"/>
<path fill-rule="evenodd" clip-rule="evenodd" d="M42.1242 6.6665C38.4423 6.6665 35.4576 9.65127 35.4576 13.3332V26.6665C35.4576 30.3484 38.4423 33.3332 42.1242 33.3332H42.4285C46.1104 33.3332 49.0951 30.3484 49.0951 26.6665V13.3332C49.0951 9.65127 46.1104 6.6665 42.4285 6.6665H42.1242ZM42.2764 19.9998C44.5359 19.9998 46.3676 18.5075 46.3676 16.6665C46.3676 14.8256 44.5359 13.3332 42.2764 13.3332C40.0168 13.3332 38.1851 14.8256 38.1851 16.6665C38.1851 18.5075 40.0168 19.9998 42.2764 19.9998Z" fill="#3D42DF"/>
</svg>
